<svg width="1920" height="1080" viewBox="0 0 1920 1080" fill="none" xmlns="http://www.w3.org/2000/svg">
<rect width="1920" height="1080" fill="url(#paint0_radial)"/>
<g opacity="0.95">
<path d="M-364 325.08C63.2901 617.629 388.009 -367.037 1920 325.08L1920 -145.999L-364 -146L-364 325.08Z" fill="url(#paint1_linear)"/>
<path d="M1920 315.686C1492.92 607.991 366.266 -479.783 -364 323.68C-364 395.632 -362.903 -155 -362.903 -155L1920 -155L1920 315.686Z" fill="#36165E"/>
</g>
<g opacity="0.95">
<path d="M2284 752.921C1856.71 460.371 1531.99 1445.04 7.82013e-05 752.921V1224H2284V752.921Z" fill="url(#paint2_linear)"/>
<path d="M0 762.314C427.085 470.01 1553.73 1557.78 2284 754.32C2284 682.368 2282.9 1233 2282.9 1233H0V762.314Z" fill="#36165E"/>
</g>
<defs>
<radialGradient id="paint0_radial" cx="0" cy="0" r="1" gradientUnits="userSpaceOnUse" gradientTransform="translate(960 540) rotate(90) scale(540 960)">
<stop stop-color="#E96F16" stop-opacity="0"/>
<stop offset="0.729167" stop-color="#E96F16"/>
</radialGradient>
<linearGradient id="paint1_linear" x1="424.694" y1="-7.99945" x2="1174.47" y2="-221.81" gradientUnits="userSpaceOnUse">
<stop stop-color="#229479"/>
<stop offset="1" stop-color="#229479" stop-opacity="0"/>
</linearGradient>
<linearGradient id="paint2_linear" x1="1495.31" y1="1086" x2="745.533" y2="1299.81" gradientUnits="userSpaceOnUse">
<stop stop-color="#229479"/>
<stop offset="1" stop-color="#229479" stop-opacity="0"/>
</linearGradient>
</defs>
</svg>
